<?xml version="1.0" encoding="UTF-8" standalone="no"?>
<!DOCTYPE svg PUBLIC "-//W3C//DTD SVG 1.1//EN"
 "http://www.w3.org/Graphics/SVG/1.1/DTD/svg11.dtd">
<!-- Generated by graphviz version 8.0.5 (0)
 -->
<!-- Title: snakemake_dag Pages: 1 -->
<svg width="1290pt" height="404pt"
 viewBox="0.00 0.00 1290.00 404.00" xmlns="http://www.w3.org/2000/svg" xmlns:xlink="http://www.w3.org/1999/xlink">
<g id="graph0" class="graph" transform="scale(1 1) rotate(0) translate(4 400)">
<title>snakemake_dag</title>
<polygon fill="white" stroke="none" points="-4,4 -4,-400 1286,-400 1286,4 -4,4"/>
<!-- 0 -->
<g id="node1" class="node">
<title>0</title>
<path fill="none" stroke="#9fd856" stroke-width="2" stroke-dasharray="5,2" d="M600,-36C600,-36 570,-36 570,-36 564,-36 558,-30 558,-24 558,-24 558,-12 558,-12 558,-6 564,0 570,0 570,0 600,0 600,0 606,0 612,-6 612,-12 612,-12 612,-24 612,-24 612,-30 606,-36 600,-36"/>
<text text-anchor="middle" x="585" y="-14.12" font-family="sans" font-size="10.00">all</text>
</g>
<!-- 1 -->
<g id="node2" class="node">
<title>1</title>
<path fill="none" stroke="#ced856" stroke-width="2" stroke-dasharray="5,2" d="M139,-108C139,-108 109,-108 109,-108 103,-108 97,-102 97,-96 97,-96 97,-84 97,-84 97,-78 103,-72 109,-72 109,-72 139,-72 139,-72 145,-72 151,-78 151,-84 151,-84 151,-96 151,-96 151,-102 145,-108 139,-108"/>
<text text-anchor="middle" x="124" y="-86.12" font-family="sans" font-size="10.00">krona</text>
</g>
<!-- 1&#45;&gt;0 -->
<g id="edge1" class="edge">
<title>1&#45;&gt;0</title>
<path fill="none" stroke="grey" stroke-width="2" d="M151.68,-83.29C168.98,-79.81 191.74,-75.39 212,-72 332.65,-51.79 476.1,-32.82 544.64,-24.07"/>
<polygon fill="grey" stroke="grey" stroke-width="2" points="544.84,-27.19 554.32,-22.45 543.96,-20.24 544.84,-27.19"/>
</g>
<!-- 2 -->
<g id="node3" class="node">
<title>2</title>
<path fill="none" stroke="#56b1d8" stroke-width="2" stroke-dasharray="5,2" d="M141.62,-180C141.62,-180 90.38,-180 90.38,-180 84.38,-180 78.38,-174 78.38,-168 78.38,-168 78.38,-156 78.38,-156 78.38,-150 84.38,-144 90.38,-144 90.38,-144 141.62,-144 141.62,-144 147.62,-144 153.62,-150 153.62,-156 153.62,-156 153.62,-168 153.62,-168 153.62,-174 147.62,-180 141.62,-180"/>
<text text-anchor="middle" x="116" y="-158.12" font-family="sans" font-size="10.00">kreport2krona</text>
</g>
<!-- 2&#45;&gt;1 -->
<g id="edge12" class="edge">
<title>2&#45;&gt;1</title>
<path fill="none" stroke="grey" stroke-width="2" d="M118.02,-143.34C118.77,-136.75 119.65,-129.08 120.5,-121.67"/>
<polygon fill="grey" stroke="grey" stroke-width="2" points="124.3,-122.23 121.95,-111.9 117.34,-121.44 124.3,-122.23"/>
</g>
<!-- 3 -->
<g id="node4" class="node">
<title>3</title>
<path fill="none" stroke="#d88556" stroke-width="2" stroke-dasharray="5,2" d="M123,-252C123,-252 93,-252 93,-252 87,-252 81,-246 81,-240 81,-240 81,-228 81,-228 81,-222 87,-216 93,-216 93,-216 123,-216 123,-216 129,-216 135,-222 135,-228 135,-228 135,-240 135,-240 135,-246 129,-252 123,-252"/>
<text text-anchor="middle" x="108" y="-230.12" font-family="sans" font-size="10.00">kraken2</text>
</g>
<!-- 3&#45;&gt;2 -->
<g id="edge13" class="edge">
<title>3&#45;&gt;2</title>
<path fill="none" stroke="grey" stroke-width="2" d="M110.02,-215.34C110.77,-208.75 111.65,-201.08 112.5,-193.67"/>
<polygon fill="grey" stroke="grey" stroke-width="2" points="116.3,-194.23 113.95,-183.9 109.34,-193.44 116.3,-194.23"/>
</g>
<!-- 4 -->
<g id="node5" class="node">
<title>4</title>
<path fill="none" stroke="#70d856" stroke-width="2" stroke-dasharray="5,2" d="M148,-324C148,-324 60,-324 60,-324 54,-324 48,-318 48,-312 48,-312 48,-300 48,-300 48,-294 54,-288 60,-288 60,-288 148,-288 148,-288 154,-288 160,-294 160,-300 160,-300 160,-312 160,-312 160,-318 154,-324 148,-324"/>
<text text-anchor="middle" x="104" y="-307.75" font-family="sans" font-size="10.00">trimmomatic</text>
<text text-anchor="middle" x="104" y="-296.5" font-family="sans" font-size="10.00">sample: SRR7865616</text>
</g>
<!-- 4&#45;&gt;3 -->
<g id="edge14" class="edge">
<title>4&#45;&gt;3</title>
<path fill="none" stroke="grey" stroke-width="2" d="M105.01,-287.34C105.39,-280.75 105.82,-273.08 106.25,-265.67"/>
<polygon fill="grey" stroke="grey" stroke-width="2" points="109.9,-266.09 106.98,-255.9 102.91,-265.69 109.9,-266.09"/>
</g>
<!-- 5 -->
<g id="node6" class="node">
<title>5</title>
<path fill="none" stroke="#ced856" stroke-width="2" stroke-dasharray="5,2" d="M263,-108C263,-108 233,-108 233,-108 227,-108 221,-102 221,-96 221,-96 221,-84 221,-84 221,-78 227,-72 233,-72 233,-72 263,-72 263,-72 269,-72 275,-78 275,-84 275,-84 275,-96 275,-96 275,-102 269,-108 263,-108"/>
<text text-anchor="middle" x="248" y="-86.12" font-family="sans" font-size="10.00">krona</text>
</g>
<!-- 5&#45;&gt;0 -->
<g id="edge2" class="edge">
<title>5&#45;&gt;0</title>
<path fill="none" stroke="grey" stroke-width="2" d="M275.97,-80.84C286.58,-77.87 298.8,-74.61 310,-72 392.72,-52.72 490.61,-35.07 544.44,-25.81"/>
<polygon fill="grey" stroke="grey" stroke-width="2" points="545.87,-28.77 555.14,-23.64 544.69,-21.87 545.87,-28.77"/>
</g>
<!-- 6 -->
<g id="node7" class="node">
<title>6</title>
<path fill="none" stroke="#56b1d8" stroke-width="2" stroke-dasharray="5,2" d="M238.62,-180C238.62,-180 187.38,-180 187.38,-180 181.38,-180 175.38,-174 175.38,-168 175.38,-168 175.38,-156 175.38,-156 175.38,-150 181.38,-144 187.38,-144 187.38,-144 238.62,-144 238.62,-144 244.62,-144 250.62,-150 250.62,-156 250.62,-156 250.62,-168 250.62,-168 250.62,-174 244.62,-180 238.62,-180"/>
<text text-anchor="middle" x="213" y="-158.12" font-family="sans" font-size="10.00">kreport2krona</text>
</g>
<!-- 6&#45;&gt;5 -->
<g id="edge15" class="edge">
<title>6&#45;&gt;5</title>
<path fill="none" stroke="grey" stroke-width="2" d="M221.83,-143.34C225.33,-136.34 229.44,-128.12 233.36,-120.28"/>
<polygon fill="grey" stroke="grey" stroke-width="2" points="236.71,-121.41 238.05,-110.9 230.45,-118.28 236.71,-121.41"/>
</g>
<!-- 7 -->
<g id="node8" class="node">
<title>7</title>
<path fill="none" stroke="#d88556" stroke-width="2" stroke-dasharray="5,2" d="M228,-252C228,-252 198,-252 198,-252 192,-252 186,-246 186,-240 186,-240 186,-228 186,-228 186,-222 192,-216 198,-216 198,-216 228,-216 228,-216 234,-216 240,-222 240,-228 240,-228 240,-240 240,-240 240,-246 234,-252 228,-252"/>
<text text-anchor="middle" x="213" y="-230.12" font-family="sans" font-size="10.00">kraken2</text>
</g>
<!-- 7&#45;&gt;6 -->
<g id="edge16" class="edge">
<title>7&#45;&gt;6</title>
<path fill="none" stroke="grey" stroke-width="2" d="M213,-215.34C213,-208.75 213,-201.08 213,-193.67"/>
<polygon fill="grey" stroke="grey" stroke-width="2" points="216.5,-193.9 213,-183.9 209.5,-193.9 216.5,-193.9"/>
</g>
<!-- 8 -->
<g id="node9" class="node">
<title>8</title>
<path fill="none" stroke="#70d856" stroke-width="2" stroke-dasharray="5,2" d="M236,-324C236,-324 190,-324 190,-324 184,-324 178,-318 178,-312 178,-312 178,-300 178,-300 178,-294 184,-288 190,-288 190,-288 236,-288 236,-288 242,-288 248,-294 248,-300 248,-300 248,-312 248,-312 248,-318 242,-324 236,-324"/>
<text text-anchor="middle" x="213" y="-302.12" font-family="sans" font-size="10.00">trimmomatic</text>
</g>
<!-- 8&#45;&gt;7 -->
<g id="edge17" class="edge">
<title>8&#45;&gt;7</title>
<path fill="none" stroke="grey" stroke-width="2" d="M213,-287.34C213,-280.75 213,-273.08 213,-265.67"/>
<polygon fill="grey" stroke="grey" stroke-width="2" points="216.5,-265.9 213,-255.9 209.5,-265.9 216.5,-265.9"/>
</g>
<!-- 9 -->
<g id="node10" class="node">
<title>9</title>
<path fill="none" stroke="#56d8c9" stroke-width="2" stroke-dasharray="5,2" d="M100,-396C100,-396 12,-396 12,-396 6,-396 0,-390 0,-384 0,-384 0,-372 0,-372 0,-366 6,-360 12,-360 12,-360 100,-360 100,-360 106,-360 112,-366 112,-372 112,-372 112,-384 112,-384 112,-390 106,-396 100,-396"/>
<text text-anchor="middle" x="56" y="-379.75" font-family="sans" font-size="10.00">cutadapt</text>
<text text-anchor="middle" x="56" y="-368.5" font-family="sans" font-size="10.00">sample: SRR7865617</text>
</g>
<!-- 9&#45;&gt;8 -->
<g id="edge18" class="edge">
<title>9&#45;&gt;8</title>
<path fill="none" stroke="grey" stroke-width="2" d="M96.02,-359.15C117.1,-349.76 143.1,-338.16 165.23,-328.3"/>
<polygon fill="grey" stroke="grey" stroke-width="2" points="167.36,-331.29 175.07,-324.02 164.51,-324.89 167.36,-331.29"/>
</g>
<!-- 10 -->
<g id="node11" class="node">
<title>10</title>
<path fill="none" stroke="#ced856" stroke-width="2" stroke-dasharray="5,2" d="M361,-108C361,-108 331,-108 331,-108 325,-108 319,-102 319,-96 319,-96 319,-84 319,-84 319,-78 325,-72 331,-72 331,-72 361,-72 361,-72 367,-72 373,-78 373,-84 373,-84 373,-96 373,-96 373,-102 367,-108 361,-108"/>
<text text-anchor="middle" x="346" y="-86.12" font-family="sans" font-size="10.00">krona</text>
</g>
<!-- 10&#45;&gt;0 -->
<g id="edge3" class="edge">
<title>10&#45;&gt;0</title>
<path fill="none" stroke="grey" stroke-width="2" d="M373.89,-78.99C380.76,-76.62 388.12,-74.15 395,-72 446.28,-55.97 506.06,-39.68 544.67,-29.47"/>
<polygon fill="grey" stroke="grey" stroke-width="2" points="546.37,-32.12 555.15,-26.19 544.59,-25.35 546.37,-32.12"/>
</g>
<!-- 11 -->
<g id="node12" class="node">
<title>11</title>
<path fill="none" stroke="#56b1d8" stroke-width="2" stroke-dasharray="5,2" d="M331.62,-180C331.62,-180 280.38,-180 280.38,-180 274.38,-180 268.38,-174 268.38,-168 268.38,-168 268.38,-156 268.38,-156 268.38,-150 274.38,-144 280.38,-144 280.38,-144 331.62,-144 331.62,-144 337.62,-144 343.62,-150 343.62,-156 343.62,-156 343.62,-168 343.62,-168 343.62,-174 337.62,-180 331.62,-180"/>
<text text-anchor="middle" x="306" y="-158.12" font-family="sans" font-size="10.00">kreport2krona</text>
</g>
<!-- 11&#45;&gt;10 -->
<g id="edge19" class="edge">
<title>11&#45;&gt;10</title>
<path fill="none" stroke="grey" stroke-width="2" d="M316.09,-143.34C320.14,-136.26 324.9,-127.92 329.43,-120"/>
<polygon fill="grey" stroke="grey" stroke-width="2" points="332.85,-121.32 334.77,-110.9 326.77,-117.85 332.85,-121.32"/>
</g>
<!-- 12 -->
<g id="node13" class="node">
<title>12</title>
<path fill="none" stroke="#d88556" stroke-width="2" stroke-dasharray="5,2" d="M319,-252C319,-252 289,-252 289,-252 283,-252 277,-246 277,-240 277,-240 277,-228 277,-228 277,-222 283,-216 289,-216 289,-216 319,-216 319,-216 325,-216 331,-222 331,-228 331,-228 331,-240 331,-240 331,-246 325,-252 319,-252"/>
<text text-anchor="middle" x="304" y="-230.12" font-family="sans" font-size="10.00">kraken2</text>
</g>
<!-- 12&#45;&gt;11 -->
<g id="edge20" class="edge">
<title>12&#45;&gt;11</title>
<path fill="none" stroke="grey" stroke-width="2" d="M304.5,-215.34C304.69,-208.75 304.91,-201.08 305.12,-193.67"/>
<polygon fill="grey" stroke="grey" stroke-width="2" points="308.7,-194 305.49,-183.9 301.7,-193.8 308.7,-194"/>
</g>
<!-- 13 -->
<g id="node14" class="node">
<title>13</title>
<path fill="none" stroke="#70d856" stroke-width="2" stroke-dasharray="5,2" d="M326,-324C326,-324 280,-324 280,-324 274,-324 268,-318 268,-312 268,-312 268,-300 268,-300 268,-294 274,-288 280,-288 280,-288 326,-288 326,-288 332,-288 338,-294 338,-300 338,-300 338,-312 338,-312 338,-318 332,-324 326,-324"/>
<text text-anchor="middle" x="303" y="-302.12" font-family="sans" font-size="10.00">trimmomatic</text>
</g>
<!-- 13&#45;&gt;12 -->
<g id="edge21" class="edge">
<title>13&#45;&gt;12</title>
<path fill="none" stroke="grey" stroke-width="2" d="M303.25,-287.34C303.35,-280.75 303.46,-273.08 303.56,-265.67"/>
<polygon fill="grey" stroke="grey" stroke-width="2" points="307.1,-265.95 303.74,-255.9 300.1,-265.85 307.1,-265.95"/>
</g>
<!-- 14 -->
<g id="node15" class="node">
<title>14</title>
<path fill="none" stroke="#56d8c9" stroke-width="2" stroke-dasharray="5,2" d="M230,-396C230,-396 142,-396 142,-396 136,-396 130,-390 130,-384 130,-384 130,-372 130,-372 130,-366 136,-360 142,-360 142,-360 230,-360 230,-360 236,-360 242,-366 242,-372 242,-372 242,-384 242,-384 242,-390 236,-396 230,-396"/>
<text text-anchor="middle" x="186" y="-379.75" font-family="sans" font-size="10.00">cutadapt</text>
<text text-anchor="middle" x="186" y="-368.5" font-family="sans" font-size="10.00">sample: SRR7865618</text>
</g>
<!-- 14&#45;&gt;13 -->
<g id="edge22" class="edge">
<title>14&#45;&gt;13</title>
<path fill="none" stroke="grey" stroke-width="2" d="M215.83,-359.15C229.99,-350.68 247.14,-340.42 262.46,-331.25"/>
<polygon fill="grey" stroke="grey" stroke-width="2" points="264.44,-333.95 271.23,-325.81 260.85,-327.94 264.44,-333.95"/>
</g>
<!-- 15 -->
<g id="node16" class="node">
<title>15</title>
<path fill="none" stroke="#ced856" stroke-width="2" stroke-dasharray="5,2" d="M446,-108C446,-108 416,-108 416,-108 410,-108 404,-102 404,-96 404,-96 404,-84 404,-84 404,-78 410,-72 416,-72 416,-72 446,-72 446,-72 452,-72 458,-78 458,-84 458,-84 458,-96 458,-96 458,-102 452,-108 446,-108"/>
<text text-anchor="middle" x="431" y="-86.12" font-family="sans" font-size="10.00">krona</text>
</g>
<!-- 15&#45;&gt;0 -->
<g id="edge4" class="edge">
<title>15&#45;&gt;0</title>
<path fill="none" stroke="grey" stroke-width="2" d="M458.89,-76.32C483.02,-65.36 518.19,-49.37 545.26,-37.06"/>
<polygon fill="grey" stroke="grey" stroke-width="2" points="547.4,-40.02 555.06,-32.7 544.51,-33.65 547.4,-40.02"/>
</g>
<!-- 16 -->
<g id="node17" class="node">
<title>16</title>
<path fill="none" stroke="#56b1d8" stroke-width="2" stroke-dasharray="5,2" d="M424.62,-180C424.62,-180 373.38,-180 373.38,-180 367.38,-180 361.38,-174 361.38,-168 361.38,-168 361.38,-156 361.38,-156 361.38,-150 367.38,-144 373.38,-144 373.38,-144 424.62,-144 424.62,-144 430.62,-144 436.62,-150 436.62,-156 436.62,-156 436.62,-168 436.62,-168 436.62,-174 430.62,-180 424.62,-180"/>
<text text-anchor="middle" x="399" y="-158.12" font-family="sans" font-size="10.00">kreport2krona</text>
</g>
<!-- 16&#45;&gt;15 -->
<g id="edge23" class="edge">
<title>16&#45;&gt;15</title>
<path fill="none" stroke="grey" stroke-width="2" d="M407.07,-143.34C410.23,-136.43 413.94,-128.31 417.49,-120.56"/>
<polygon fill="grey" stroke="grey" stroke-width="2" points="420.84,-121.45 421.82,-110.9 414.48,-118.54 420.84,-121.45"/>
</g>
<!-- 17 -->
<g id="node18" class="node">
<title>17</title>
<path fill="none" stroke="#d88556" stroke-width="2" stroke-dasharray="5,2" d="M412,-252C412,-252 382,-252 382,-252 376,-252 370,-246 370,-240 370,-240 370,-228 370,-228 370,-222 376,-216 382,-216 382,-216 412,-216 412,-216 418,-216 424,-222 424,-228 424,-228 424,-240 424,-240 424,-246 418,-252 412,-252"/>
<text text-anchor="middle" x="397" y="-230.12" font-family="sans" font-size="10.00">kraken2</text>
</g>
<!-- 17&#45;&gt;16 -->
<g id="edge24" class="edge">
<title>17&#45;&gt;16</title>
<path fill="none" stroke="grey" stroke-width="2" d="M397.5,-215.34C397.69,-208.75 397.91,-201.08 398.12,-193.67"/>
<polygon fill="grey" stroke="grey" stroke-width="2" points="401.7,-194 398.49,-183.9 394.7,-193.8 401.7,-194"/>
</g>
<!-- 18 -->
<g id="node19" class="node">
<title>18</title>
<path fill="none" stroke="#70d856" stroke-width="2" stroke-dasharray="5,2" d="M418,-324C418,-324 372,-324 372,-324 366,-324 360,-318 360,-312 360,-312 360,-300 360,-300 360,-294 366,-288 372,-288 372,-288 418,-288 418,-288 424,-288 430,-294 430,-300 430,-300 430,-312 430,-312 430,-318 424,-324 418,-324"/>
<text text-anchor="middle" x="395" y="-302.12" font-family="sans" font-size="10.00">trimmomatic</text>
</g>
<!-- 18&#45;&gt;17 -->
<g id="edge25" class="edge">
<title>18&#45;&gt;17</title>
<path fill="none" stroke="grey" stroke-width="2" d="M395.5,-287.34C395.69,-280.75 395.91,-273.08 396.12,-265.67"/>
<polygon fill="grey" stroke="grey" stroke-width="2" points="399.7,-266 396.49,-255.9 392.7,-265.8 399.7,-266"/>
</g>
<!-- 19 -->
<g id="node20" class="node">
<title>19</title>
<path fill="none" stroke="#56d8c9" stroke-width="2" stroke-dasharray="5,2" d="M360,-396C360,-396 272,-396 272,-396 266,-396 260,-390 260,-384 260,-384 260,-372 260,-372 260,-366 266,-360 272,-360 272,-360 360,-360 360,-360 366,-360 372,-366 372,-372 372,-372 372,-384 372,-384 372,-390 366,-396 360,-396"/>
<text text-anchor="middle" x="316" y="-379.75" font-family="sans" font-size="10.00">cutadapt</text>
<text text-anchor="middle" x="316" y="-368.5" font-family="sans" font-size="10.00">sample: SRR7865619</text>
</g>
<!-- 19&#45;&gt;18 -->
<g id="edge26" class="edge">
<title>19&#45;&gt;18</title>
<path fill="none" stroke="grey" stroke-width="2" d="M335.94,-359.34C344.85,-351.44 355.54,-341.96 365.36,-333.26"/>
<polygon fill="grey" stroke="grey" stroke-width="2" points="367.63,-336.15 372.8,-326.9 362.99,-330.91 367.63,-336.15"/>
</g>
<!-- 20 -->
<g id="node21" class="node">
<title>20</title>
<path fill="none" stroke="#ced856" stroke-width="2" stroke-dasharray="5,2" d="M525,-108C525,-108 495,-108 495,-108 489,-108 483,-102 483,-96 483,-96 483,-84 483,-84 483,-78 489,-72 495,-72 495,-72 525,-72 525,-72 531,-72 537,-78 537,-84 537,-84 537,-96 537,-96 537,-102 531,-108 525,-108"/>
<text text-anchor="middle" x="510" y="-86.12" font-family="sans" font-size="10.00">krona</text>
</g>
<!-- 20&#45;&gt;0 -->
<g id="edge5" class="edge">
<title>20&#45;&gt;0</title>
<path fill="none" stroke="grey" stroke-width="2" d="M528.93,-71.34C537.3,-63.52 547.33,-54.16 556.57,-45.53"/>
<polygon fill="grey" stroke="grey" stroke-width="2" points="558.9,-48.28 563.82,-38.9 554.12,-43.17 558.9,-48.28"/>
</g>
<!-- 21 -->
<g id="node22" class="node">
<title>21</title>
<path fill="none" stroke="#56b1d8" stroke-width="2" stroke-dasharray="5,2" d="M517.62,-180C517.62,-180 466.38,-180 466.38,-180 460.38,-180 454.38,-174 454.38,-168 454.38,-168 454.38,-156 454.38,-156 454.38,-150 460.38,-144 466.38,-144 466.38,-144 517.62,-144 517.62,-144 523.62,-144 529.62,-150 529.62,-156 529.62,-156 529.62,-168 529.62,-168 529.62,-174 523.62,-180 517.62,-180"/>
<text text-anchor="middle" x="492" y="-158.12" font-family="sans" font-size="10.00">kreport2krona</text>
</g>
<!-- 21&#45;&gt;20 -->
<g id="edge27" class="edge">
<title>21&#45;&gt;20</title>
<path fill="none" stroke="grey" stroke-width="2" d="M496.54,-143.34C498.26,-136.67 500.26,-128.89 502.19,-121.39"/>
<polygon fill="grey" stroke="grey" stroke-width="2" points="506.3,-121.46 505.4,-110.9 499.52,-119.72 506.3,-121.46"/>
</g>
<!-- 22 -->
<g id="node23" class="node">
<title>22</title>
<path fill="none" stroke="#d88556" stroke-width="2" stroke-dasharray="5,2" d="M506,-252C506,-252 476,-252 476,-252 470,-252 464,-246 464,-240 464,-240 464,-228 464,-228 464,-222 470,-216 476,-216 476,-216 506,-216 506,-216 512,-216 518,-222 518,-228 518,-228 518,-240 518,-240 518,-246 512,-252 506,-252"/>
<text text-anchor="middle" x="491" y="-230.12" font-family="sans" font-size="10.00">kraken2</text>
</g>
<!-- 22&#45;&gt;21 -->
<g id="edge28" class="edge">
<title>22&#45;&gt;21</title>
<path fill="none" stroke="grey" stroke-width="2" d="M491.25,-215.34C491.35,-208.75 491.46,-201.08 491.56,-193.67"/>
<polygon fill="grey" stroke="grey" stroke-width="2" points="495.1,-193.95 491.74,-183.9 488.1,-193.85 495.1,-193.95"/>
</g>
<!-- 23 -->
<g id="node24" class="node">
<title>23</title>
<path fill="none" stroke="#70d856" stroke-width="2" stroke-dasharray="5,2" d="M513,-324C513,-324 467,-324 467,-324 461,-324 455,-318 455,-312 455,-312 455,-300 455,-300 455,-294 461,-288 467,-288 467,-288 513,-288 513,-288 519,-288 525,-294 525,-300 525,-300 525,-312 525,-312 525,-318 519,-324 513,-324"/>
<text text-anchor="middle" x="490" y="-302.12" font-family="sans" font-size="10.00">trimmomatic</text>
</g>
<!-- 23&#45;&gt;22 -->
<g id="edge29" class="edge">
<title>23&#45;&gt;22</title>
<path fill="none" stroke="grey" stroke-width="2" d="M490.25,-287.34C490.35,-280.75 490.46,-273.08 490.56,-265.67"/>
<polygon fill="grey" stroke="grey" stroke-width="2" points="494.1,-265.95 490.74,-255.9 487.1,-265.85 494.1,-265.95"/>
</g>
<!-- 24 -->
<g id="node25" class="node">
<title>24</title>
<path fill="none" stroke="#56d8c9" stroke-width="2" stroke-dasharray="5,2" d="M490,-396C490,-396 402,-396 402,-396 396,-396 390,-390 390,-384 390,-384 390,-372 390,-372 390,-366 396,-360 402,-360 402,-360 490,-360 490,-360 496,-360 502,-366 502,-372 502,-372 502,-384 502,-384 502,-390 496,-396 490,-396"/>
<text text-anchor="middle" x="446" y="-379.75" font-family="sans" font-size="10.00">cutadapt</text>
<text text-anchor="middle" x="446" y="-368.5" font-family="sans" font-size="10.00">sample: SRR7865620</text>
</g>
<!-- 24&#45;&gt;23 -->
<g id="edge30" class="edge">
<title>24&#45;&gt;23</title>
<path fill="none" stroke="grey" stroke-width="2" d="M457.1,-359.34C461.6,-352.18 466.91,-343.73 471.94,-335.73"/>
<polygon fill="grey" stroke="grey" stroke-width="2" points="475.39,-337.23 477.75,-326.9 469.46,-333.51 475.39,-337.23"/>
</g>
<!-- 25 -->
<g id="node26" class="node">
<title>25</title>
<path fill="none" stroke="#ced856" stroke-width="2" stroke-dasharray="5,2" d="M600,-108C600,-108 570,-108 570,-108 564,-108 558,-102 558,-96 558,-96 558,-84 558,-84 558,-78 564,-72 570,-72 570,-72 600,-72 600,-72 606,-72 612,-78 612,-84 612,-84 612,-96 612,-96 612,-102 606,-108 600,-108"/>
<text text-anchor="middle" x="585" y="-86.12" font-family="sans" font-size="10.00">krona</text>
</g>
<!-- 25&#45;&gt;0 -->
<g id="edge6" class="edge">
<title>25&#45;&gt;0</title>
<path fill="none" stroke="grey" stroke-width="2" d="M585,-71.34C585,-64.75 585,-57.08 585,-49.67"/>
<polygon fill="grey" stroke="grey" stroke-width="2" points="588.5,-49.9 585,-39.9 581.5,-49.9 588.5,-49.9"/>
</g>
<!-- 26 -->
<g id="node27" class="node">
<title>26</title>
<path fill="none" stroke="#56b1d8" stroke-width="2" stroke-dasharray="5,2" d="M610.62,-180C610.62,-180 559.38,-180 559.38,-180 553.38,-180 547.38,-174 547.38,-168 547.38,-168 547.38,-156 547.38,-156 547.38,-150 553.38,-144 559.38,-144 559.38,-144 610.62,-144 610.62,-144 616.62,-144 622.62,-150 622.62,-156 622.62,-156 622.62,-168 622.62,-168 622.62,-174 616.62,-180 610.62,-180"/>
<text text-anchor="middle" x="585" y="-158.12" font-family="sans" font-size="10.00">kreport2krona</text>
</g>
<!-- 26&#45;&gt;25 -->
<g id="edge31" class="edge">
<title>26&#45;&gt;25</title>
<path fill="none" stroke="grey" stroke-width="2" d="M585,-143.34C585,-136.75 585,-129.08 585,-121.67"/>
<polygon fill="grey" stroke="grey" stroke-width="2" points="588.5,-121.9 585,-111.9 581.5,-121.9 588.5,-121.9"/>
</g>
<!-- 27 -->
<g id="node28" class="node">
<title>27</title>
<path fill="none" stroke="#d88556" stroke-width="2" stroke-dasharray="5,2" d="M595,-252C595,-252 565,-252 565,-252 559,-252 553,-246 553,-240 553,-240 553,-228 553,-228 553,-222 559,-216 565,-216 565,-216 595,-216 595,-216 601,-216 607,-222 607,-228 607,-228 607,-240 607,-240 607,-246 601,-252 595,-252"/>
<text text-anchor="middle" x="580" y="-230.12" font-family="sans" font-size="10.00">kraken2</text>
</g>
<!-- 27&#45;&gt;26 -->
<g id="edge32" class="edge">
<title>27&#45;&gt;26</title>
<path fill="none" stroke="grey" stroke-width="2" d="M581.26,-215.34C581.73,-208.75 582.28,-201.08 582.81,-193.67"/>
<polygon fill="grey" stroke="grey" stroke-width="2" points="586.5,-194.13 583.72,-183.9 579.52,-193.63 586.5,-194.13"/>
</g>
<!-- 28 -->
<g id="node29" class="node">
<title>28</title>
<path fill="none" stroke="#70d856" stroke-width="2" stroke-dasharray="5,2" d="M603,-324C603,-324 557,-324 557,-324 551,-324 545,-318 545,-312 545,-312 545,-300 545,-300 545,-294 551,-288 557,-288 557,-288 603,-288 603,-288 609,-288 615,-294 615,-300 615,-300 615,-312 615,-312 615,-318 609,-324 603,-324"/>
<text text-anchor="middle" x="580" y="-302.12" font-family="sans" font-size="10.00">trimmomatic</text>
</g>
<!-- 28&#45;&gt;27 -->
<g id="edge33" class="edge">
<title>28&#45;&gt;27</title>
<path fill="none" stroke="grey" stroke-width="2" d="M580,-287.34C580,-280.75 580,-273.08 580,-265.67"/>
<polygon fill="grey" stroke="grey" stroke-width="2" points="583.5,-265.9 580,-255.9 576.5,-265.9 583.5,-265.9"/>
</g>
<!-- 29 -->
<g id="node30" class="node">
<title>29</title>
<path fill="none" stroke="#56d8c9" stroke-width="2" stroke-dasharray="5,2" d="M620,-396C620,-396 532,-396 532,-396 526,-396 520,-390 520,-384 520,-384 520,-372 520,-372 520,-366 526,-360 532,-360 532,-360 620,-360 620,-360 626,-360 632,-366 632,-372 632,-372 632,-384 632,-384 632,-390 626,-396 620,-396"/>
<text text-anchor="middle" x="576" y="-379.75" font-family="sans" font-size="10.00">cutadapt</text>
<text text-anchor="middle" x="576" y="-368.5" font-family="sans" font-size="10.00">sample: SRR7865621</text>
</g>
<!-- 29&#45;&gt;28 -->
<g id="edge34" class="edge">
<title>29&#45;&gt;28</title>
<path fill="none" stroke="grey" stroke-width="2" d="M577.01,-359.34C577.39,-352.75 577.82,-345.08 578.25,-337.67"/>
<polygon fill="grey" stroke="grey" stroke-width="2" points="581.9,-338.09 578.98,-327.9 574.91,-337.69 581.9,-338.09"/>
</g>
<!-- 30 -->
<g id="node31" class="node">
<title>30</title>
<path fill="none" stroke="#ced856" stroke-width="2" stroke-dasharray="5,2" d="M682,-108C682,-108 652,-108 652,-108 646,-108 640,-102 640,-96 640,-96 640,-84 640,-84 640,-78 646,-72 652,-72 652,-72 682,-72 682,-72 688,-72 694,-78 694,-84 694,-84 694,-96 694,-96 694,-102 688,-108 682,-108"/>
<text text-anchor="middle" x="667" y="-86.12" font-family="sans" font-size="10.00">krona</text>
</g>
<!-- 30&#45;&gt;0 -->
<g id="edge7" class="edge">
<title>30&#45;&gt;0</title>
<path fill="none" stroke="grey" stroke-width="2" d="M646.31,-71.34C637.06,-63.44 625.96,-53.96 615.76,-45.26"/>
<polygon fill="grey" stroke="grey" stroke-width="2" points="617.85,-41.73 607.97,-37.9 613.3,-47.06 617.85,-41.73"/>
</g>
<!-- 31 -->
<g id="node32" class="node">
<title>31</title>
<path fill="none" stroke="#56b1d8" stroke-width="2" stroke-dasharray="5,2" d="M706.62,-180C706.62,-180 655.38,-180 655.38,-180 649.38,-180 643.38,-174 643.38,-168 643.38,-168 643.38,-156 643.38,-156 643.38,-150 649.38,-144 655.38,-144 655.38,-144 706.62,-144 706.62,-144 712.62,-144 718.62,-150 718.62,-156 718.62,-156 718.62,-168 718.62,-168 718.62,-174 712.62,-180 706.62,-180"/>
<text text-anchor="middle" x="681" y="-158.12" font-family="sans" font-size="10.00">kreport2krona</text>
</g>
<!-- 31&#45;&gt;30 -->
<g id="edge35" class="edge">
<title>31&#45;&gt;30</title>
<path fill="none" stroke="grey" stroke-width="2" d="M677.47,-143.34C676.13,-136.67 674.58,-128.89 673.08,-121.39"/>
<polygon fill="grey" stroke="grey" stroke-width="2" points="675.97,-120.02 670.58,-110.9 669.11,-121.39 675.97,-120.02"/>
</g>
<!-- 32 -->
<g id="node33" class="node">
<title>32</title>
<path fill="none" stroke="#d88556" stroke-width="2" stroke-dasharray="5,2" d="M700,-252C700,-252 670,-252 670,-252 664,-252 658,-246 658,-240 658,-240 658,-228 658,-228 658,-222 664,-216 670,-216 670,-216 700,-216 700,-216 706,-216 712,-222 712,-228 712,-228 712,-240 712,-240 712,-246 706,-252 700,-252"/>
<text text-anchor="middle" x="685" y="-230.12" font-family="sans" font-size="10.00">kraken2</text>
</g>
<!-- 32&#45;&gt;31 -->
<g id="edge36" class="edge">
<title>32&#45;&gt;31</title>
<path fill="none" stroke="grey" stroke-width="2" d="M683.99,-215.34C683.61,-208.75 683.18,-201.08 682.75,-193.67"/>
<polygon fill="grey" stroke="grey" stroke-width="2" points="686.09,-193.69 682.02,-183.9 679.1,-194.09 686.09,-193.69"/>
</g>
<!-- 33 -->
<g id="node34" class="node">
<title>33</title>
<path fill="none" stroke="#70d856" stroke-width="2" stroke-dasharray="5,2" d="M715,-324C715,-324 669,-324 669,-324 663,-324 657,-318 657,-312 657,-312 657,-300 657,-300 657,-294 663,-288 669,-288 669,-288 715,-288 715,-288 721,-288 727,-294 727,-300 727,-300 727,-312 727,-312 727,-318 721,-324 715,-324"/>
<text text-anchor="middle" x="692" y="-302.12" font-family="sans" font-size="10.00">trimmomatic</text>
</g>
<!-- 33&#45;&gt;32 -->
<g id="edge37" class="edge">
<title>33&#45;&gt;32</title>
<path fill="none" stroke="grey" stroke-width="2" d="M690.23,-287.34C689.58,-280.75 688.81,-273.08 688.07,-265.67"/>
<polygon fill="grey" stroke="grey" stroke-width="2" points="691.27,-265.5 686.79,-255.9 684.3,-266.2 691.27,-265.5"/>
</g>
<!-- 34 -->
<g id="node35" class="node">
<title>34</title>
<path fill="none" stroke="#56d8c9" stroke-width="2" stroke-dasharray="5,2" d="M750,-396C750,-396 662,-396 662,-396 656,-396 650,-390 650,-384 650,-384 650,-372 650,-372 650,-366 656,-360 662,-360 662,-360 750,-360 750,-360 756,-360 762,-366 762,-372 762,-372 762,-384 762,-384 762,-390 756,-396 750,-396"/>
<text text-anchor="middle" x="706" y="-379.75" font-family="sans" font-size="10.00">cutadapt</text>
<text text-anchor="middle" x="706" y="-368.5" font-family="sans" font-size="10.00">sample: SRR7865622</text>
</g>
<!-- 34&#45;&gt;33 -->
<g id="edge38" class="edge">
<title>34&#45;&gt;33</title>
<path fill="none" stroke="grey" stroke-width="2" d="M702.47,-359.34C701.13,-352.67 699.58,-344.89 698.08,-337.39"/>
<polygon fill="grey" stroke="grey" stroke-width="2" points="700.97,-336.02 695.58,-326.9 694.11,-337.39 700.97,-336.02"/>
</g>
<!-- 35 -->
<g id="node36" class="node">
<title>35</title>
<path fill="none" stroke="#ced856" stroke-width="2" stroke-dasharray="5,2" d="M770,-108C770,-108 740,-108 740,-108 734,-108 728,-102 728,-96 728,-96 728,-84 728,-84 728,-78 734,-72 740,-72 740,-72 770,-72 770,-72 776,-72 782,-78 782,-84 782,-84 782,-96 782,-96 782,-102 776,-108 770,-108"/>
<text text-anchor="middle" x="755" y="-86.12" font-family="sans" font-size="10.00">krona</text>
</g>
<!-- 35&#45;&gt;0 -->
<g id="edge8" class="edge">
<title>35&#45;&gt;0</title>
<path fill="none" stroke="grey" stroke-width="2" d="M727.31,-77.6C699.48,-66.14 656.32,-48.37 624.83,-35.4"/>
<polygon fill="grey" stroke="grey" stroke-width="2" points="625.54,-32.09 614.96,-31.51 622.88,-38.56 625.54,-32.09"/>
</g>
<!-- 36 -->
<g id="node37" class="node">
<title>36</title>
<path fill="none" stroke="#56b1d8" stroke-width="2" stroke-dasharray="5,2" d="M800.62,-180C800.62,-180 749.38,-180 749.38,-180 743.38,-180 737.38,-174 737.38,-168 737.38,-168 737.38,-156 737.38,-156 737.38,-150 743.38,-144 749.38,-144 749.38,-144 800.62,-144 800.62,-144 806.62,-144 812.62,-150 812.62,-156 812.62,-156 812.62,-168 812.62,-168 812.62,-174 806.62,-180 800.62,-180"/>
<text text-anchor="middle" x="775" y="-158.12" font-family="sans" font-size="10.00">kreport2krona</text>
</g>
<!-- 36&#45;&gt;35 -->
<g id="edge39" class="edge">
<title>36&#45;&gt;35</title>
<path fill="none" stroke="grey" stroke-width="2" d="M769.95,-143.34C768.05,-136.67 765.82,-128.89 763.68,-121.39"/>
<polygon fill="grey" stroke="grey" stroke-width="2" points="766.23,-119.56 760.11,-110.9 759.5,-121.48 766.23,-119.56"/>
</g>
<!-- 37 -->
<g id="node38" class="node">
<title>37</title>
<path fill="none" stroke="#d88556" stroke-width="2" stroke-dasharray="5,2" d="M823,-252C823,-252 793,-252 793,-252 787,-252 781,-246 781,-240 781,-240 781,-228 781,-228 781,-222 787,-216 793,-216 793,-216 823,-216 823,-216 829,-216 835,-222 835,-228 835,-228 835,-240 835,-240 835,-246 829,-252 823,-252"/>
<text text-anchor="middle" x="808" y="-230.12" font-family="sans" font-size="10.00">kraken2</text>
</g>
<!-- 37&#45;&gt;36 -->
<g id="edge40" class="edge">
<title>37&#45;&gt;36</title>
<path fill="none" stroke="grey" stroke-width="2" d="M799.67,-215.34C796.41,-208.43 792.59,-200.31 788.93,-192.56"/>
<polygon fill="grey" stroke="grey" stroke-width="2" points="791.87,-190.45 784.44,-182.9 785.54,-193.44 791.87,-190.45"/>
</g>
<!-- 38 -->
<g id="node39" class="node">
<title>38</title>
<path fill="none" stroke="#70d856" stroke-width="2" stroke-dasharray="5,2" d="M849,-324C849,-324 803,-324 803,-324 797,-324 791,-318 791,-312 791,-312 791,-300 791,-300 791,-294 797,-288 803,-288 803,-288 849,-288 849,-288 855,-288 861,-294 861,-300 861,-300 861,-312 861,-312 861,-318 855,-324 849,-324"/>
<text text-anchor="middle" x="826" y="-302.12" font-family="sans" font-size="10.00">trimmomatic</text>
</g>
<!-- 38&#45;&gt;37 -->
<g id="edge41" class="edge">
<title>38&#45;&gt;37</title>
<path fill="none" stroke="grey" stroke-width="2" d="M821.46,-287.34C819.74,-280.67 817.74,-272.89 815.81,-265.39"/>
<polygon fill="grey" stroke="grey" stroke-width="2" points="818.48,-263.72 812.6,-254.9 811.7,-265.46 818.48,-263.72"/>
</g>
<!-- 39 -->
<g id="node40" class="node">
<title>39</title>
<path fill="none" stroke="#56d8c9" stroke-width="2" stroke-dasharray="5,2" d="M880,-396C880,-396 792,-396 792,-396 786,-396 780,-390 780,-384 780,-384 780,-372 780,-372 780,-366 786,-360 792,-360 792,-360 880,-360 880,-360 886,-360 892,-366 892,-372 892,-372 892,-384 892,-384 892,-390 886,-396 880,-396"/>
<text text-anchor="middle" x="836" y="-379.75" font-family="sans" font-size="10.00">cutadapt</text>
<text text-anchor="middle" x="836" y="-368.5" font-family="sans" font-size="10.00">sample: SRR7865623</text>
</g>
<!-- 39&#45;&gt;38 -->
<g id="edge42" class="edge">
<title>39&#45;&gt;38</title>
<path fill="none" stroke="grey" stroke-width="2" d="M833.48,-359.34C832.54,-352.75 831.44,-345.08 830.38,-337.67"/>
<polygon fill="grey" stroke="grey" stroke-width="2" points="833.44,-336.31 828.56,-326.9 826.51,-337.3 833.44,-336.31"/>
</g>
<!-- 40 -->
<g id="node41" class="node">
<title>40</title>
<path fill="none" stroke="#ced856" stroke-width="2" stroke-dasharray="5,2" d="M860,-108C860,-108 830,-108 830,-108 824,-108 818,-102 818,-96 818,-96 818,-84 818,-84 818,-78 824,-72 830,-72 830,-72 860,-72 860,-72 866,-72 872,-78 872,-84 872,-84 872,-96 872,-96 872,-102 866,-108 860,-108"/>
<text text-anchor="middle" x="845" y="-86.12" font-family="sans" font-size="10.00">krona</text>
</g>
<!-- 40&#45;&gt;0 -->
<g id="edge9" class="edge">
<title>40&#45;&gt;0</title>
<path fill="none" stroke="grey" stroke-width="2" d="M817.06,-79.89C808.7,-77.25 799.51,-74.43 791,-72 733.81,-55.65 667.04,-38.9 625.38,-28.72"/>
<polygon fill="grey" stroke="grey" stroke-width="2" points="625.33,-24.61 614.78,-25.65 623.67,-31.42 625.33,-24.61"/>
</g>
<!-- 41 -->
<g id="node42" class="node">
<title>41</title>
<path fill="none" stroke="#56b1d8" stroke-width="2" stroke-dasharray="5,2" d="M894.62,-180C894.62,-180 843.38,-180 843.38,-180 837.38,-180 831.38,-174 831.38,-168 831.38,-168 831.38,-156 831.38,-156 831.38,-150 837.38,-144 843.38,-144 843.38,-144 894.62,-144 894.62,-144 900.62,-144 906.62,-150 906.62,-156 906.62,-156 906.62,-168 906.62,-168 906.62,-174 900.62,-180 894.62,-180"/>
<text text-anchor="middle" x="869" y="-158.12" font-family="sans" font-size="10.00">kreport2krona</text>
</g>
<!-- 41&#45;&gt;40 -->
<g id="edge43" class="edge">
<title>41&#45;&gt;40</title>
<path fill="none" stroke="grey" stroke-width="2" d="M862.94,-143.34C860.63,-136.59 857.92,-128.69 855.32,-121.11"/>
<polygon fill="grey" stroke="grey" stroke-width="2" points="857.69,-119.23 851.14,-110.9 851.07,-121.5 857.69,-119.23"/>
</g>
<!-- 42 -->
<g id="node43" class="node">
<title>42</title>
<path fill="none" stroke="#d88556" stroke-width="2" stroke-dasharray="5,2" d="M911,-252C911,-252 881,-252 881,-252 875,-252 869,-246 869,-240 869,-240 869,-228 869,-228 869,-222 875,-216 881,-216 881,-216 911,-216 911,-216 917,-216 923,-222 923,-228 923,-228 923,-240 923,-240 923,-246 917,-252 911,-252"/>
<text text-anchor="middle" x="896" y="-230.12" font-family="sans" font-size="10.00">kraken2</text>
</g>
<!-- 42&#45;&gt;41 -->
<g id="edge44" class="edge">
<title>42&#45;&gt;41</title>
<path fill="none" stroke="grey" stroke-width="2" d="M889.19,-215.34C886.55,-208.51 883.46,-200.5 880.51,-192.83"/>
<polygon fill="grey" stroke="grey" stroke-width="2" points="883.77,-190.97 876.9,-182.9 877.24,-193.49 883.77,-190.97"/>
</g>
<!-- 43 -->
<g id="node44" class="node">
<title>43</title>
<path fill="none" stroke="#70d856" stroke-width="2" stroke-dasharray="5,2" d="M954,-324C954,-324 908,-324 908,-324 902,-324 896,-318 896,-312 896,-312 896,-300 896,-300 896,-294 902,-288 908,-288 908,-288 954,-288 954,-288 960,-288 966,-294 966,-300 966,-300 966,-312 966,-312 966,-318 960,-324 954,-324"/>
<text text-anchor="middle" x="931" y="-302.12" font-family="sans" font-size="10.00">trimmomatic</text>
</g>
<!-- 43&#45;&gt;42 -->
<g id="edge45" class="edge">
<title>43&#45;&gt;42</title>
<path fill="none" stroke="grey" stroke-width="2" d="M922.17,-287.34C918.67,-280.34 914.56,-272.12 910.64,-264.28"/>
<polygon fill="grey" stroke="grey" stroke-width="2" points="913.55,-262.28 905.95,-254.9 907.29,-265.41 913.55,-262.28"/>
</g>
<!-- 44 -->
<g id="node45" class="node">
<title>44</title>
<path fill="none" stroke="#56d8c9" stroke-width="2" stroke-dasharray="5,2" d="M1010,-396C1010,-396 922,-396 922,-396 916,-396 910,-390 910,-384 910,-384 910,-372 910,-372 910,-366 916,-360 922,-360 922,-360 1010,-360 1010,-360 1016,-360 1022,-366 1022,-372 1022,-372 1022,-384 1022,-384 1022,-390 1016,-396 1010,-396"/>
<text text-anchor="middle" x="966" y="-379.75" font-family="sans" font-size="10.00">cutadapt</text>
<text text-anchor="middle" x="966" y="-368.5" font-family="sans" font-size="10.00">sample: SRR7865624</text>
</g>
<!-- 44&#45;&gt;43 -->
<g id="edge46" class="edge">
<title>44&#45;&gt;43</title>
<path fill="none" stroke="grey" stroke-width="2" d="M957.17,-359.34C953.67,-352.34 949.56,-344.12 945.64,-336.28"/>
<polygon fill="grey" stroke="grey" stroke-width="2" points="948.55,-334.28 940.95,-326.9 942.29,-337.41 948.55,-334.28"/>
</g>
<!-- 45 -->
<g id="node46" class="node">
<title>45</title>
<path fill="none" stroke="#ced856" stroke-width="2" stroke-dasharray="5,2" d="M952,-108C952,-108 922,-108 922,-108 916,-108 910,-102 910,-96 910,-96 910,-84 910,-84 910,-78 916,-72 922,-72 922,-72 952,-72 952,-72 958,-72 964,-78 964,-84 964,-84 964,-96 964,-96 964,-102 958,-108 952,-108"/>
<text text-anchor="middle" x="937" y="-86.12" font-family="sans" font-size="10.00">krona</text>
</g>
<!-- 45&#45;&gt;0 -->
<g id="edge10" class="edge">
<title>45&#45;&gt;0</title>
<path fill="none" stroke="grey" stroke-width="2" d="M909.26,-79.88C900.3,-77.12 890.29,-74.23 881,-72 790.77,-50.31 683.14,-33.19 625.77,-24.75"/>
<polygon fill="grey" stroke="grey" stroke-width="2" points="625.38,-20.86 614.98,-22.89 624.37,-27.79 625.38,-20.86"/>
</g>
<!-- 46 -->
<g id="node47" class="node">
<title>46</title>
<path fill="none" stroke="#56b1d8" stroke-width="2" stroke-dasharray="5,2" d="M987.62,-180C987.62,-180 936.38,-180 936.38,-180 930.38,-180 924.38,-174 924.38,-168 924.38,-168 924.38,-156 924.38,-156 924.38,-150 930.38,-144 936.38,-144 936.38,-144 987.62,-144 987.62,-144 993.62,-144 999.62,-150 999.62,-156 999.62,-156 999.62,-168 999.62,-168 999.62,-174 993.62,-180 987.62,-180"/>
<text text-anchor="middle" x="962" y="-158.12" font-family="sans" font-size="10.00">kreport2krona</text>
</g>
<!-- 46&#45;&gt;45 -->
<g id="edge47" class="edge">
<title>46&#45;&gt;45</title>
<path fill="none" stroke="grey" stroke-width="2" d="M955.69,-143.34C953.28,-136.59 950.46,-128.69 947.75,-121.11"/>
<polygon fill="grey" stroke="grey" stroke-width="2" points="951.05,-119.14 944.39,-110.9 944.46,-121.5 951.05,-119.14"/>
</g>
<!-- 47 -->
<g id="node48" class="node">
<title>47</title>
<path fill="none" stroke="#d88556" stroke-width="2" stroke-dasharray="5,2" d="M1002,-252C1002,-252 972,-252 972,-252 966,-252 960,-246 960,-240 960,-240 960,-228 960,-228 960,-222 966,-216 972,-216 972,-216 1002,-216 1002,-216 1008,-216 1014,-222 1014,-228 1014,-228 1014,-240 1014,-240 1014,-246 1008,-252 1002,-252"/>
<text text-anchor="middle" x="987" y="-230.12" font-family="sans" font-size="10.00">kraken2</text>
</g>
<!-- 47&#45;&gt;46 -->
<g id="edge48" class="edge">
<title>47&#45;&gt;46</title>
<path fill="none" stroke="grey" stroke-width="2" d="M980.69,-215.34C978.28,-208.59 975.46,-200.69 972.75,-193.11"/>
<polygon fill="grey" stroke="grey" stroke-width="2" points="976.05,-191.14 969.39,-182.9 969.46,-193.5 976.05,-191.14"/>
</g>
<!-- 48 -->
<g id="node49" class="node">
<title>48</title>
<path fill="none" stroke="#70d856" stroke-width="2" stroke-dasharray="5,2" d="M1076,-324C1076,-324 1030,-324 1030,-324 1024,-324 1018,-318 1018,-312 1018,-312 1018,-300 1018,-300 1018,-294 1024,-288 1030,-288 1030,-288 1076,-288 1076,-288 1082,-288 1088,-294 1088,-300 1088,-300 1088,-312 1088,-312 1088,-318 1082,-324 1076,-324"/>
<text text-anchor="middle" x="1053" y="-302.12" font-family="sans" font-size="10.00">trimmomatic</text>
</g>
<!-- 48&#45;&gt;47 -->
<g id="edge49" class="edge">
<title>48&#45;&gt;47</title>
<path fill="none" stroke="grey" stroke-width="2" d="M1036.35,-287.34C1029.21,-279.77 1020.71,-270.75 1012.79,-262.35"/>
<polygon fill="grey" stroke="grey" stroke-width="2" points="1015.29,-259.78 1005.88,-254.9 1010.19,-264.58 1015.29,-259.78"/>
</g>
<!-- 49 -->
<g id="node50" class="node">
<title>49</title>
<path fill="none" stroke="#56d8c9" stroke-width="2" stroke-dasharray="5,2" d="M1140,-396C1140,-396 1052,-396 1052,-396 1046,-396 1040,-390 1040,-384 1040,-384 1040,-372 1040,-372 1040,-366 1046,-360 1052,-360 1052,-360 1140,-360 1140,-360 1146,-360 1152,-366 1152,-372 1152,-372 1152,-384 1152,-384 1152,-390 1146,-396 1140,-396"/>
<text text-anchor="middle" x="1096" y="-379.75" font-family="sans" font-size="10.00">cutadapt</text>
<text text-anchor="middle" x="1096" y="-368.5" font-family="sans" font-size="10.00">sample: SRR7865625</text>
</g>
<!-- 49&#45;&gt;48 -->
<g id="edge50" class="edge">
<title>49&#45;&gt;48</title>
<path fill="none" stroke="grey" stroke-width="2" d="M1085.15,-359.34C1080.75,-352.18 1075.56,-343.73 1070.65,-335.73"/>
<polygon fill="grey" stroke="grey" stroke-width="2" points="1073.21,-333.59 1065,-326.9 1067.25,-337.25 1073.21,-333.59"/>
</g>
<!-- 50 -->
<g id="node51" class="node">
<title>50</title>
<path fill="none" stroke="#ced856" stroke-width="2" stroke-dasharray="5,2" d="M1044,-108C1044,-108 1014,-108 1014,-108 1008,-108 1002,-102 1002,-96 1002,-96 1002,-84 1002,-84 1002,-78 1008,-72 1014,-72 1014,-72 1044,-72 1044,-72 1050,-72 1056,-78 1056,-84 1056,-84 1056,-96 1056,-96 1056,-102 1050,-108 1044,-108"/>
<text text-anchor="middle" x="1029" y="-86.12" font-family="sans" font-size="10.00">krona</text>
</g>
<!-- 50&#45;&gt;0 -->
<g id="edge11" class="edge">
<title>50&#45;&gt;0</title>
<path fill="none" stroke="grey" stroke-width="2" d="M1001.03,-79.56C992.15,-76.81 982.23,-74.02 973,-72 847.58,-44.58 696.08,-28.77 625.21,-22.37"/>
<polygon fill="grey" stroke="grey" stroke-width="2" points="625.82,-18.64 615.55,-21.25 625.2,-25.61 625.82,-18.64"/>
</g>
<!-- 51 -->
<g id="node52" class="node">
<title>51</title>
<path fill="none" stroke="#56b1d8" stroke-width="2" stroke-dasharray="5,2" d="M1080.62,-180C1080.62,-180 1029.38,-180 1029.38,-180 1023.38,-180 1017.38,-174 1017.38,-168 1017.38,-168 1017.38,-156 1017.38,-156 1017.38,-150 1023.38,-144 1029.38,-144 1029.38,-144 1080.62,-144 1080.62,-144 1086.62,-144 1092.62,-150 1092.62,-156 1092.62,-156 1092.62,-168 1092.62,-168 1092.62,-174 1086.62,-180 1080.62,-180"/>
<text text-anchor="middle" x="1055" y="-158.12" font-family="sans" font-size="10.00">kreport2krona</text>
</g>
<!-- 51&#45;&gt;50 -->
<g id="edge51" class="edge">
<title>51&#45;&gt;50</title>
<path fill="none" stroke="grey" stroke-width="2" d="M1048.44,-143.34C1045.9,-136.51 1042.93,-128.5 1040.08,-120.83"/>
<polygon fill="grey" stroke="grey" stroke-width="2" points="1043.41,-119.06 1036.65,-110.9 1036.85,-121.49 1043.41,-119.06"/>
</g>
<!-- 52 -->
<g id="node53" class="node">
<title>52</title>
<path fill="none" stroke="#d88556" stroke-width="2" stroke-dasharray="5,2" d="M1084,-252C1084,-252 1054,-252 1054,-252 1048,-252 1042,-246 1042,-240 1042,-240 1042,-228 1042,-228 1042,-222 1048,-216 1054,-216 1054,-216 1084,-216 1084,-216 1090,-216 1096,-222 1096,-228 1096,-228 1096,-240 1096,-240 1096,-246 1090,-252 1084,-252"/>
<text text-anchor="middle" x="1069" y="-230.12" font-family="sans" font-size="10.00">kraken2</text>
</g>
<!-- 52&#45;&gt;51 -->
<g id="edge52" class="edge">
<title>52&#45;&gt;51</title>
<path fill="none" stroke="grey" stroke-width="2" d="M1065.47,-215.34C1064.13,-208.67 1062.58,-200.89 1061.08,-193.39"/>
<polygon fill="grey" stroke="grey" stroke-width="2" points="1063.97,-192.02 1058.58,-182.9 1057.11,-193.39 1063.97,-192.02"/>
</g>
<!-- 53 -->
<g id="node54" class="node">
<title>53</title>
<path fill="none" stroke="#70d856" stroke-width="2" stroke-dasharray="5,2" d="M1232,-324C1232,-324 1186,-324 1186,-324 1180,-324 1174,-318 1174,-312 1174,-312 1174,-300 1174,-300 1174,-294 1180,-288 1186,-288 1186,-288 1232,-288 1232,-288 1238,-288 1244,-294 1244,-300 1244,-300 1244,-312 1244,-312 1244,-318 1238,-324 1232,-324"/>
<text text-anchor="middle" x="1209" y="-302.12" font-family="sans" font-size="10.00">trimmomatic</text>
</g>
<!-- 53&#45;&gt;52 -->
<g id="edge53" class="edge">
<title>53&#45;&gt;52</title>
<path fill="none" stroke="grey" stroke-width="2" d="M1173.31,-287.15C1153.4,-277.2 1128.57,-264.78 1108.13,-254.57"/>
<polygon fill="grey" stroke="grey" stroke-width="2" points="1109.18,-251.18 1098.67,-249.84 1106.05,-257.44 1109.18,-251.18"/>
</g>
<!-- 54 -->
<g id="node55" class="node">
<title>54</title>
<path fill="none" stroke="#56d8c9" stroke-width="2" stroke-dasharray="5,2" d="M1270,-396C1270,-396 1182,-396 1182,-396 1176,-396 1170,-390 1170,-384 1170,-384 1170,-372 1170,-372 1170,-366 1176,-360 1182,-360 1182,-360 1270,-360 1270,-360 1276,-360 1282,-366 1282,-372 1282,-372 1282,-384 1282,-384 1282,-390 1276,-396 1270,-396"/>
<text text-anchor="middle" x="1226" y="-379.75" font-family="sans" font-size="10.00">cutadapt</text>
<text text-anchor="middle" x="1226" y="-368.5" font-family="sans" font-size="10.00">sample: SRR7865626</text>
</g>
<!-- 54&#45;&gt;53 -->
<g id="edge54" class="edge">
<title>54&#45;&gt;53</title>
<path fill="none" stroke="grey" stroke-width="2" d="M1221.71,-359.34C1220.09,-352.67 1218.2,-344.89 1216.38,-337.39"/>
<polygon fill="grey" stroke="grey" stroke-width="2" points="1219.11,-335.79 1213.35,-326.9 1212.31,-337.45 1219.11,-335.79"/>
</g>
</g>
</svg>
